# xmcd
#
# Track frame offsets:
#	150
#	10673
#	21003
#	28295
#	37915
#	48829
#	56399
#	69187
#	81053
#	90926
#	100553
#	110915
#	120974
#	129343
#	139758
#
# Disc length: 2018 seconds
#
# Revision: 0
# Processed by: cddbd v1.5.2PL0 Copyright (c) Steve Scherf et al.
# Submitted via: dBpowerAMP V4.0
#
DISCID=a907e00f
DTITLE=Various Artist - Get It On! The Music That Made Bolan Boogie
DYEAR=2011
DGENRE=Pop
TTITLE0=Ivan - Real Wild Child
TTITLE1=Dale Hawkins - Suzie Q
TTITLE2=Mickey Hawks - Bip Bop Boom
TTITLE3=Roy Orbison - Go! Go! Go!
TTITLE4=Jerry Lee Lewis - Mean Woman Blues
TTITLE5=Vern Pullens - Bop Crazy Baby
TTITLE6=Carl Perkins - Put Your Cat Clothes On
TTITLE7=Jody Reynolds - Jeannie Mae
TTITLE8=Billy Lee Riley - Rock With Me Baby
TTITLE9=Gene Criss - Hepcat Baby
TTITLE10=Johnny Carroll and His Hot Rocks - Hot Rock
TTITLE11=George Thumper Jones - Rock It
TTITLE12=Joe Montgomery - Cool Cat
TTITLE13=Wally Jeffery - Oh Yeah
TTITLE14=Johnny Burnette - Rock Billy Boogie
EXTD=
EXTT0=
EXTT1=
EXTT2=
EXTT3=
EXTT4=
EXTT5=
EXTT6=
EXTT7=
EXTT8=
EXTT9=
EXTT10=
EXTT11=
EXTT12=
EXTT13=
EXTT14=
PLAYORDER=
